<svg width="65" height="75" viewBox="0 0 65 75" fill="none" xmlns="http://www.w3.org/2000/svg">
<g filter="url(#filter0_d_185_140)">
<mask id="path-1-inside-1_185_140" fill="white">
<path fill-rule="evenodd" clip-rule="evenodd" d="M33.9725 1.68658C34.0913 1.78207 45.42 10.7105 58.625 10.7105C59.2549 10.7105 59.859 10.962 60.3044 11.4097C60.7498 11.8574 61 12.4646 61 13.0977V34.5832C61 50.6018 54.5638 58.4559 33.4738 67.7901C33.1676 67.9285 32.8357 68 32.5 68C32.1643 68 31.8324 67.9285 31.5263 67.7901C10.4363 58.4559 4 50.6018 4 34.5832V13.0977C4 12.4646 4.25022 11.8574 4.69562 11.4097C5.14102 10.962 5.74511 10.7105 6.375 10.7105C19.6275 10.7105 30.9088 1.78207 31.0275 1.68658C31.4468 1.35353 31.9656 1.17236 32.5 1.17236C33.0344 1.17236 33.5532 1.35353 33.9725 1.68658ZM19.208 15.9138C19.4668 16.2654 19.7232 16.6132 19.9776 16.9581L19.978 16.9587C20.8431 18.1317 21.684 19.2721 22.5106 20.4215C22.6094 20.5579 22.6127 20.7813 22.6155 20.9697L22.6158 20.9894C22.6203 23.3559 22.6198 25.7223 22.6192 28.0887C22.619 28.8777 22.6188 29.6666 22.6188 30.4556V31.0806H42.4767V30.4976C42.4767 29.8637 42.4764 29.2297 42.4762 28.5957C42.4752 26.0584 42.4743 23.5199 42.4887 20.9834C42.4887 20.725 42.5879 20.4245 42.7381 20.2141C43.4739 19.1875 44.2253 18.1719 44.9879 17.1412L44.988 17.1411C45.2812 16.7447 45.5761 16.3461 45.8725 15.9438C45.9039 15.9806 45.9336 16.0149 45.9618 16.0474C46.044 16.1423 46.1133 16.2224 46.176 16.3075L46.5272 16.7826L46.5273 16.7827C47.3722 17.9256 48.2179 19.0694 49.0519 20.2201C49.1781 20.3974 49.2803 20.6378 49.2803 20.8512C49.2903 28.9442 49.2899 37.0372 49.2894 45.1302V45.1391L49.2893 49.9979C49.2893 50.0483 49.2839 50.0976 49.2776 50.1549C49.2734 50.1932 49.2689 50.2351 49.2652 50.2834H42.4947V35.1375H22.6429V50.2924H15.7942V49.6853C15.7942 40.1501 15.7942 30.6208 15.8062 21.0886C15.8062 20.767 15.9324 20.4004 16.1188 20.136C16.8289 19.1362 17.5575 18.1501 18.3033 17.1407L18.3033 17.1407C18.6022 16.7363 18.9037 16.3281 19.208 15.9138ZM31.0885 40.0306L31.1001 40.0422L31.1153 40.0575C31.5745 40.5188 32.0289 40.9754 32.4944 41.4422C33.101 40.8049 33.6907 40.1834 34.2741 39.5685L34.275 39.5675L34.298 39.5433C34.6226 39.2012 34.9454 38.861 35.2681 38.5212C35.2832 38.531 35.2982 38.541 35.3133 38.5512C35.3238 38.5582 35.3343 38.5653 35.3447 38.5723C35.3703 38.5896 35.3958 38.6069 35.4213 38.6234C35.4246 38.6737 35.4295 38.724 35.4343 38.7742C35.4429 38.8622 35.4514 38.9502 35.4514 39.0381C35.4514 39.6464 35.4519 40.2545 35.4523 40.8625C35.4539 42.8889 35.4555 44.9144 35.4394 46.9416C35.4394 47.188 35.3071 47.4885 35.1358 47.6688C34.5312 48.3061 33.9077 48.9244 33.2619 49.5649L33.2619 49.565C33.0154 49.8094 32.7656 50.0571 32.5124 50.3104C32.3542 50.1493 32.2047 49.9838 32.0571 49.8206C31.7451 49.4754 31.442 49.1401 31.0849 48.8769C29.8108 47.9333 29.4321 46.7343 29.5403 45.1686C29.6368 43.7668 29.6147 42.3562 29.5925 40.946L29.5925 40.9454C29.5829 40.3363 29.5734 39.7274 29.5734 39.1193V38.5092C30.0972 39.0346 30.5958 39.5355 31.0885 40.0306Z"/>
</mask>
<path fill-rule="evenodd" clip-rule="evenodd" d="M33.9725 1.68658C34.0913 1.78207 45.42 10.7105 58.625 10.7105C59.2549 10.7105 59.859 10.962 60.3044 11.4097C60.7498 11.8574 61 12.4646 61 13.0977V34.5832C61 50.6018 54.5638 58.4559 33.4738 67.7901C33.1676 67.9285 32.8357 68 32.5 68C32.1643 68 31.8324 67.9285 31.5263 67.7901C10.4363 58.4559 4 50.6018 4 34.5832V13.0977C4 12.4646 4.25022 11.8574 4.69562 11.4097C5.14102 10.962 5.74511 10.7105 6.375 10.7105C19.6275 10.7105 30.9088 1.78207 31.0275 1.68658C31.4468 1.35353 31.9656 1.17236 32.5 1.17236C33.0344 1.17236 33.5532 1.35353 33.9725 1.68658ZM19.208 15.9138C19.4668 16.2654 19.7232 16.6132 19.9776 16.9581L19.978 16.9587C20.8431 18.1317 21.684 19.2721 22.5106 20.4215C22.6094 20.5579 22.6127 20.7813 22.6155 20.9697L22.6158 20.9894C22.6203 23.3559 22.6198 25.7223 22.6192 28.0887C22.619 28.8777 22.6188 29.6666 22.6188 30.4556V31.0806H42.4767V30.4976C42.4767 29.8637 42.4764 29.2297 42.4762 28.5957C42.4752 26.0584 42.4743 23.5199 42.4887 20.9834C42.4887 20.725 42.5879 20.4245 42.7381 20.2141C43.4739 19.1875 44.2253 18.1719 44.9879 17.1412L44.988 17.1411C45.2812 16.7447 45.5761 16.3461 45.8725 15.9438C45.9039 15.9806 45.9336 16.0149 45.9618 16.0474C46.044 16.1423 46.1133 16.2224 46.176 16.3075L46.5272 16.7826L46.5273 16.7827C47.3722 17.9256 48.2179 19.0694 49.0519 20.2201C49.1781 20.3974 49.2803 20.6378 49.2803 20.8512C49.2903 28.9442 49.2899 37.0372 49.2894 45.1302V45.1391L49.2893 49.9979C49.2893 50.0483 49.2839 50.0976 49.2776 50.1549C49.2734 50.1932 49.2689 50.2351 49.2652 50.2834H42.4947V35.1375H22.6429V50.2924H15.7942V49.6853C15.7942 40.1501 15.7942 30.6208 15.8062 21.0886C15.8062 20.767 15.9324 20.4004 16.1188 20.136C16.8289 19.1362 17.5575 18.1501 18.3033 17.1407L18.3033 17.1407C18.6022 16.7363 18.9037 16.3281 19.208 15.9138ZM31.0885 40.0306L31.1001 40.0422L31.1153 40.0575C31.5745 40.5188 32.0289 40.9754 32.4944 41.4422C33.101 40.8049 33.6907 40.1834 34.2741 39.5685L34.275 39.5675L34.298 39.5433C34.6226 39.2012 34.9454 38.861 35.2681 38.5212C35.2832 38.531 35.2982 38.541 35.3133 38.5512C35.3238 38.5582 35.3343 38.5653 35.3447 38.5723C35.3703 38.5896 35.3958 38.6069 35.4213 38.6234C35.4246 38.6737 35.4295 38.724 35.4343 38.7742C35.4429 38.8622 35.4514 38.9502 35.4514 39.0381C35.4514 39.6464 35.4519 40.2545 35.4523 40.8625C35.4539 42.8889 35.4555 44.9144 35.4394 46.9416C35.4394 47.188 35.3071 47.4885 35.1358 47.6688C34.5312 48.3061 33.9077 48.9244 33.2619 49.5649L33.2619 49.565C33.0154 49.8094 32.7656 50.0571 32.5124 50.3104C32.3542 50.1493 32.2047 49.9838 32.0571 49.8206C31.7451 49.4754 31.442 49.1401 31.0849 48.8769C29.8108 47.9333 29.4321 46.7343 29.5403 45.1686C29.6368 43.7668 29.6147 42.3562 29.5925 40.946L29.5925 40.9454C29.5829 40.3363 29.5734 39.7274 29.5734 39.1193V38.5092C30.0972 39.0346 30.5958 39.5355 31.0885 40.0306Z" fill="#FF0000"/>
<path d="M33.9725 1.68658L35.2258 0.127961L35.2164 0.12049L33.9725 1.68658ZM60.3044 11.4097L58.8865 12.8202L58.8865 12.8202L60.3044 11.4097ZM33.4738 67.7901L32.6643 65.9612L32.6573 65.9643L32.6502 65.9675L33.4738 67.7901ZM31.5263 67.7901L32.3498 65.9675L32.3427 65.9643L32.3357 65.9612L31.5263 67.7901ZM4.69562 11.4097L3.27777 9.99911L3.27777 9.99911L4.69562 11.4097ZM31.0275 1.68658L29.7835 0.120462L29.7742 0.127979L31.0275 1.68658ZM19.9776 16.9581L21.5891 15.7736L21.5873 15.7711L19.9776 16.9581ZM19.208 15.9138L20.8188 14.7283L19.2064 12.5373L17.5961 14.7299L19.208 15.9138ZM19.978 16.9587L18.3665 18.1432L18.3684 18.1457L19.978 16.9587ZM22.5106 20.4215L20.887 21.5892L20.8902 21.5937L22.5106 20.4215ZM22.6155 20.9697L20.6158 20.9997L20.6158 21.0001L22.6155 20.9697ZM22.6158 20.9894L24.6158 20.9856L24.6158 20.9723L24.6156 20.959L22.6158 20.9894ZM22.6192 28.0887L24.6192 28.0892V28.0892L22.6192 28.0887ZM22.6188 31.0806H20.6188V33.0806H22.6188V31.0806ZM42.4767 31.0806V33.0806H44.4767V31.0806H42.4767ZM42.4762 28.5957L40.4762 28.5964L42.4762 28.5957ZM42.4887 20.9834L44.4887 20.9948V20.9834H42.4887ZM42.7381 20.2141L41.1125 19.049L41.1107 19.0516L42.7381 20.2141ZM44.9879 17.1412L43.4262 15.8918L43.4026 15.9213L43.3801 15.9516L44.9879 17.1412ZM44.988 17.1411L46.5497 18.3905L46.5733 18.361L46.5957 18.3307L44.988 17.1411ZM45.8725 15.9438L47.3932 14.6448L45.7565 12.7288L44.2621 14.7578L45.8725 15.9438ZM45.9618 16.0474L47.4735 14.738L47.4735 14.738L45.9618 16.0474ZM46.176 16.3075L44.5659 17.4939L44.5677 17.4963L46.176 16.3075ZM46.5272 16.7826L44.9189 17.9715L44.9272 17.9826L46.5272 16.7826ZM46.5273 16.7827L48.1355 15.5937L48.1273 15.5827L46.5273 16.7827ZM49.0519 20.2201L50.6812 19.0603L50.6763 19.0533L50.6713 19.0464L49.0519 20.2201ZM49.2803 20.8512H47.2803V20.8537L49.2803 20.8512ZM49.2894 45.1302L47.2894 45.1301V45.1302H49.2894ZM49.2894 45.1391L51.2894 45.1391V45.1391H49.2894ZM49.2893 49.9979L47.2893 49.9978V49.9979H49.2893ZM49.2776 50.1549L51.2658 50.3722L51.2658 50.3721L49.2776 50.1549ZM49.2652 50.2834V52.2834H51.1208L51.2596 50.433L49.2652 50.2834ZM42.4947 50.2834H40.4947V52.2834H42.4947V50.2834ZM42.4947 35.1375H44.4947V33.1375H42.4947V35.1375ZM22.6429 35.1375V33.1375H20.6429V35.1375H22.6429ZM22.6429 50.2924V52.2924H24.6429V50.2924H22.6429ZM15.7942 50.2924H13.7942V52.2924H15.7942V50.2924ZM15.8062 21.0886L17.8062 21.0911V21.0886H15.8062ZM16.1188 20.136L14.4882 18.9778L14.4838 18.9841L16.1188 20.136ZM18.3033 17.1407L19.9119 18.3292L19.9164 18.3231L19.9208 18.317L18.3033 17.1407ZM18.3033 17.1407L16.6948 15.9521L16.6903 15.9582L16.6859 15.9643L18.3033 17.1407ZM31.1001 40.0422L32.5177 38.6314L32.5175 38.6312L31.1001 40.0422ZM31.0885 40.0306L29.671 41.4415L29.6712 41.4417L31.0885 40.0306ZM31.1153 40.0575L29.6978 41.4683L29.6978 41.4684L31.1153 40.0575ZM32.4944 41.4422L31.078 42.8543L32.5274 44.3082L33.9429 42.8212L32.4944 41.4422ZM34.2741 39.5685L35.725 40.9451L35.7262 40.9438L34.2741 39.5685ZM34.275 39.5675L32.8242 38.1909L32.8229 38.1923L34.275 39.5675ZM34.298 39.5433L35.7489 40.9199L35.7489 40.9198L34.298 39.5433ZM35.2681 38.5212L36.3546 36.8421L34.9611 35.9404L33.818 37.1439L35.2681 38.5212ZM35.3133 38.5512L34.1982 40.2114L34.1985 40.2116L35.3133 38.5512ZM35.3447 38.5723L36.4653 36.9157L36.4652 36.9157L35.3447 38.5723ZM35.4213 38.6234L37.4171 38.4933L37.3517 37.4904L36.5079 36.9443L35.4213 38.6234ZM35.4343 38.7742L33.4437 38.967L33.4437 38.967L35.4343 38.7742ZM35.4523 40.8625L33.4523 40.8641V40.8641L35.4523 40.8625ZM35.4394 46.9416L33.4394 46.9256L33.4394 46.9336V46.9416H35.4394ZM35.1358 47.6688L33.6859 46.2913L33.685 46.2923L35.1358 47.6688ZM33.2619 49.5649L31.8536 48.1448L31.8198 48.1783L31.7876 48.2134L33.2619 49.5649ZM33.2619 49.565L34.6702 50.985L34.704 50.9515L34.7362 50.9164L33.2619 49.565ZM32.5124 50.3104L31.0854 51.7117L32.4995 53.1516L33.9266 51.7246L32.5124 50.3104ZM32.0571 49.8206L33.5409 48.4795L33.5409 48.4795L32.0571 49.8206ZM31.0849 48.8769L29.8947 50.4842L29.8982 50.4868L31.0849 48.8769ZM29.5403 45.1686L31.5356 45.3064L31.5356 45.306L29.5403 45.1686ZM29.5925 40.946L31.5923 40.9145L31.5921 40.9075L29.5925 40.946ZM29.5925 40.9454L27.5927 40.9768L27.5929 40.9838L29.5925 40.9454ZM29.5734 38.5092L30.9897 37.0971L27.5734 33.6708V38.5092H29.5734ZM58.625 8.71046C52.4508 8.71046 46.6348 6.6153 42.2843 4.44471C37.9474 2.28086 35.2062 0.112241 35.2258 0.127989L32.7192 3.24517C32.8575 3.35641 35.8401 5.69973 40.4985 8.02395C45.1434 10.3414 51.5942 12.7105 58.625 12.7105V8.71046ZM61.7222 9.99912C60.9026 9.17521 59.7887 8.71046 58.625 8.71046V12.7105C58.7211 12.7105 58.8154 12.7487 58.8865 12.8202L61.7222 9.99912ZM63 13.0977C63 11.9375 62.5416 10.8227 61.7222 9.99911L58.8865 12.8202C58.958 12.8921 59 12.9917 59 13.0977H63ZM63 34.5832V13.0977H59V34.5832H63ZM34.2832 69.619C44.8911 64.924 52.1327 60.4739 56.6868 54.968C61.3223 49.3635 63 42.8859 63 34.5832H59C59 42.299 57.4596 47.7577 53.6045 52.4186C49.6679 57.1779 43.1464 61.322 32.6643 65.9612L34.2832 69.619ZM32.5 70C33.1199 70 33.7325 69.8679 34.2973 69.6127L32.6502 65.9675C32.6026 65.989 32.5514 66 32.5 66V70ZM30.7027 69.6127C31.2675 69.8679 31.8801 70 32.5 70V66C32.4486 66 32.3974 65.989 32.3498 65.9675L30.7027 69.6127ZM2 34.5832C2 42.8859 3.67768 49.3635 8.31324 54.968C12.8673 60.4739 20.1089 64.924 30.7168 69.619L32.3357 65.9612C21.8536 61.322 15.3321 57.1779 11.3955 52.4186C7.54045 47.7577 6 42.299 6 34.5832H2ZM2 13.0977V34.5832H6V13.0977H2ZM3.27777 9.99911C2.45845 10.8227 2 11.9375 2 13.0977H6C6 12.9917 6.042 12.8921 6.11348 12.8202L3.27777 9.99911ZM6.375 8.71046C5.21134 8.71046 4.09744 9.17521 3.27777 9.99911L6.11347 12.8202C6.1846 12.7487 6.27888 12.7105 6.375 12.7105V8.71046ZM29.7742 0.127979C29.7909 0.114514 27.0617 2.28235 22.7326 4.44518C18.3897 6.61484 12.5736 8.71046 6.375 8.71046V12.7105C13.429 12.7105 19.8797 10.3419 24.5203 8.02347C29.1745 5.69823 32.1453 3.35413 32.2808 3.24518L29.7742 0.127979ZM32.5 -0.827637C31.5129 -0.827637 30.5558 -0.49292 29.7836 0.12049L32.2714 3.25266C32.3378 3.19998 32.4183 3.17236 32.5 3.17236V-0.827637ZM35.2164 0.12049C34.4442 -0.492921 33.4871 -0.827637 32.5 -0.827637V3.17236C32.5817 3.17236 32.6622 3.19998 32.7286 3.25266L35.2164 0.12049ZM21.5873 15.7711C21.3328 15.426 21.0769 15.0791 20.8188 14.7283L17.5972 17.0992C17.8567 17.4518 18.1137 17.8003 18.368 18.1451L21.5873 15.7711ZM21.5896 15.7742L21.5891 15.7736L18.3661 18.1426L18.3665 18.1432L21.5896 15.7742ZM24.1343 19.2537C23.2996 18.093 22.4515 16.943 21.5877 15.7717L18.3684 18.1457C19.2346 19.3204 20.0685 20.4512 20.887 21.5892L24.1343 19.2537ZM24.6153 20.9398C24.6142 20.869 24.6135 20.6395 24.5797 20.3983C24.5482 20.1737 24.4609 19.7051 24.1311 19.2492L20.8902 21.5937C20.7674 21.424 20.703 21.2678 20.6693 21.1659C20.6357 21.0641 20.6231 20.9873 20.6184 20.9539C20.6135 20.9191 20.6133 20.902 20.6139 20.9146C20.6145 20.9288 20.615 20.948 20.6158 20.9997L24.6153 20.9398ZM24.6156 20.959L24.6153 20.9393L20.6158 21.0001L20.6161 21.0198L24.6156 20.959ZM24.6192 28.0892C24.6198 25.7231 24.6203 23.3546 24.6158 20.9856L20.6158 20.9932C20.6203 23.3572 20.6198 25.7215 20.6192 28.0883L24.6192 28.0892ZM24.6188 30.4556C24.6188 29.6669 24.619 28.8782 24.6192 28.0892L20.6192 28.0883C20.619 28.8772 20.6188 29.6663 20.6188 30.4556H24.6188ZM24.6188 31.0806V30.4556H20.6188V31.0806H24.6188ZM42.4767 29.0806H22.6188V33.0806H42.4767V29.0806ZM40.4767 30.4976V31.0806H44.4767V30.4976H40.4767ZM40.4762 28.5964C40.4764 29.2306 40.4767 29.8642 40.4767 30.4976H44.4767C44.4767 29.8633 44.4764 29.2289 44.4762 28.5949L40.4762 28.5964ZM40.4887 20.972C40.4743 23.5156 40.4752 26.0601 40.4762 28.5964L44.4762 28.5949C44.4752 26.0566 44.4743 23.5242 44.4887 20.9948L40.4887 20.972ZM41.1107 19.0516C40.7261 19.59 40.4887 20.2946 40.4887 20.9834H44.4887C44.4887 21.0973 44.4693 21.1676 44.4587 21.2003C44.4478 21.2338 44.4242 21.2945 44.3656 21.3766L41.1107 19.0516ZM43.3801 15.9516C42.6191 16.9803 41.8586 18.0081 41.1125 19.049L44.3637 21.3792C45.0892 20.367 45.8316 19.3635 46.5957 18.3307L43.3801 15.9516ZM43.4262 15.8917L43.4262 15.8918L46.5496 18.3906L46.5497 18.3905L43.4262 15.8917ZM44.2621 14.7578C43.9673 15.158 43.6737 15.5549 43.3802 15.9516L46.5957 18.3307C46.8888 17.9346 47.185 17.5342 47.4828 17.1299L44.2621 14.7578ZM47.4735 14.738C47.4449 14.7049 47.4195 14.6756 47.3932 14.6448L44.3517 17.2428C44.3883 17.2856 44.4223 17.3249 44.45 17.3569L47.4735 14.738ZM47.7861 15.121C47.6682 14.961 47.5447 14.8202 47.4735 14.738L44.45 17.3569C44.5432 17.4645 44.5585 17.4838 44.5659 17.4939L47.7861 15.121ZM48.1355 15.5938L47.7843 15.1186L44.5677 17.4963L44.9189 17.9715L48.1355 15.5938ZM48.1273 15.5827L48.1272 15.5826L44.9272 17.9826L44.9273 17.9827L48.1273 15.5827ZM50.6713 19.0464C49.8308 17.8867 48.9795 16.7354 48.1355 15.5937L44.9191 17.9716C45.765 19.1159 46.6049 20.252 47.4325 21.3938L50.6713 19.0464ZM51.2803 20.8512C51.2803 20.0855 50.955 19.4448 50.6812 19.0603L47.4225 21.38C47.3911 21.3358 47.3655 21.2896 47.3434 21.2314C47.324 21.1803 47.2803 21.0491 47.2803 20.8512H51.2803ZM51.2894 45.1303C51.2899 37.0375 51.2903 28.9432 51.2803 20.8487L47.2803 20.8537C47.2903 28.9452 47.2899 37.0369 47.2894 45.1301L51.2894 45.1303ZM51.2894 45.1391V45.1302H47.2894V45.1391H51.2894ZM51.2893 49.9979L51.2894 45.1391L47.2894 45.139L47.2893 49.9978L51.2893 49.9979ZM51.2658 50.3721C51.2697 50.336 51.2893 50.1764 51.2893 49.9979H47.2893C47.2893 49.9519 47.2918 49.9191 47.2926 49.9092C47.293 49.9043 47.2931 49.9032 47.2926 49.9085C47.292 49.9146 47.2912 49.922 47.2895 49.9376L51.2658 50.3721ZM51.2596 50.433C51.2604 50.4227 51.2615 50.4118 51.2658 50.3722L47.2895 49.9376C47.2854 49.9746 47.2773 50.0476 47.2708 50.1337L51.2596 50.433ZM42.4947 52.2834H49.2652V48.2834H42.4947V52.2834ZM40.4947 35.1375V50.2834H44.4947V35.1375H40.4947ZM22.6429 37.1375H42.4947V33.1375H22.6429V37.1375ZM24.6429 50.2924V35.1375H20.6429V50.2924H24.6429ZM15.7942 52.2924H22.6429V48.2924H15.7942V52.2924ZM13.7942 49.6853V50.2924H17.7942V49.6853H13.7942ZM13.8062 21.0861C13.7942 30.6198 13.7942 40.1503 13.7942 49.6853H17.7942C17.7942 40.1499 17.7942 30.6219 17.8062 21.0911L13.8062 21.0861ZM14.4838 18.9841C14.0833 19.5525 13.8062 20.3158 13.8062 21.0886H17.8062C17.8062 21.1373 17.8016 21.1707 17.7985 21.1882C17.7954 21.2062 17.7921 21.2169 17.7904 21.222C17.7887 21.2273 17.7864 21.233 17.7826 21.2408C17.7789 21.2482 17.7704 21.2643 17.7537 21.2879L14.4838 18.9841ZM16.6948 15.9522C15.9509 16.959 15.2111 17.9601 14.4882 18.9778L17.7493 21.2941C18.4468 20.3122 19.1641 19.3412 19.9119 18.3292L16.6948 15.9522ZM16.6859 15.9643L16.6859 15.9644L19.9208 18.317L19.9208 18.317L16.6859 15.9643ZM17.5961 14.7299C17.2938 15.1415 16.9939 15.5474 16.6948 15.9521L19.9119 18.3292C20.2104 17.9251 20.5137 17.5147 20.82 17.0977L17.5961 14.7299ZM32.5175 38.6312L32.5059 38.6195L29.6712 41.4417L29.6828 41.4533L32.5175 38.6312ZM32.5329 38.6467L32.5177 38.6314L29.6826 41.4531L29.6978 41.4683L32.5329 38.6467ZM33.9107 40.0302C33.446 39.564 32.9921 39.108 32.5329 38.6466L29.6978 41.4684C30.1569 41.9297 30.6119 42.3868 31.078 42.8543L33.9107 40.0302ZM32.8232 38.192C32.2396 38.8071 31.6511 39.4273 31.0458 40.0632L33.9429 42.8212C34.551 42.1825 35.1417 41.5598 35.725 40.9451L32.8232 38.192ZM32.8229 38.1923L32.822 38.1933L35.7262 40.9438L35.7271 40.9428L32.8229 38.1923ZM32.8472 38.1667L32.8242 38.1909L35.7259 40.9441L35.7489 40.9199L32.8472 38.1667ZM33.818 37.1439C33.4948 37.4841 33.1717 37.8247 32.8471 38.1667L35.7489 40.9198C36.0736 40.5776 36.3959 40.2379 36.7182 39.8986L33.818 37.1439ZM36.4284 36.8909C36.4082 36.8773 36.3828 36.8604 36.3546 36.8421L34.1815 40.2004C34.1835 40.2016 34.1883 40.2048 34.1982 40.2114L36.4284 36.8909ZM36.4652 36.9157C36.4552 36.909 36.4419 36.8999 36.4282 36.8907L34.1985 40.2116C34.2056 40.2164 34.2133 40.2216 34.2242 40.229L36.4652 36.9157ZM36.5079 36.9443C36.5024 36.9408 36.4938 36.935 36.4653 36.9157L34.2242 40.229C34.2467 40.2442 34.2892 40.273 34.3347 40.3025L36.5079 36.9443ZM37.425 38.5815C37.4197 38.5259 37.418 38.507 37.4171 38.4933L33.4256 38.7535C33.4312 38.8404 33.4393 38.922 33.4437 38.967L37.425 38.5815ZM37.4514 39.0381C37.4514 38.8373 37.432 38.653 37.425 38.5815L33.4437 38.967C33.4459 38.99 33.4474 39.006 33.4488 39.021C33.4501 39.0354 33.4509 39.0447 33.4513 39.0511C33.4523 39.0644 33.4514 39.0574 33.4514 39.0381H37.4514ZM37.4523 40.8609C37.4519 40.2528 37.4514 39.6455 37.4514 39.0381H33.4514C33.4514 39.6473 33.4519 40.2562 33.4523 40.8641L37.4523 40.8609ZM37.4393 46.9576C37.4556 44.9201 37.4539 42.8859 37.4523 40.8609L33.4523 40.8641C33.454 42.8919 33.4555 44.9086 33.4394 46.9256L37.4393 46.9576ZM36.5858 49.0463C37.0674 48.5395 37.4394 47.7597 37.4394 46.9416H33.4394C33.4394 46.7323 33.4887 46.6008 33.5105 46.5493C33.5342 46.4934 33.5812 46.4016 33.6859 46.2913L36.5858 49.0463ZM34.6703 50.985C35.3123 50.3483 35.9576 49.7085 36.5867 49.0454L33.685 46.2923C33.1049 46.9037 32.5032 47.5006 31.8536 48.1448L34.6703 50.985ZM34.7362 50.9164L34.7362 50.9163L31.7876 48.2134L31.7876 48.2135L34.7362 50.9164ZM33.9266 51.7246C34.1764 51.4748 34.4232 51.2299 34.6702 50.985L31.8535 48.1449C31.6075 48.3889 31.3548 48.6395 31.0982 48.8961L33.9266 51.7246ZM30.5734 51.1618C30.7167 51.3202 30.8935 51.5163 31.0854 51.7117L33.9393 48.909C33.8149 48.7822 33.6927 48.6475 33.5409 48.4795L30.5734 51.1618ZM29.8982 50.4868C30.0651 50.6098 30.2354 50.7878 30.5734 51.1618L33.5409 48.4795C33.2548 48.1631 32.819 47.6705 32.2717 47.267L29.8982 50.4868ZM27.5451 45.0307C27.4781 45.9997 27.5497 47.0101 27.9322 47.9858C28.3247 48.9873 28.9906 49.8146 29.8947 50.4842L32.2752 47.2697C31.9052 46.9956 31.7447 46.7515 31.6563 46.5262C31.5579 46.2751 31.4943 45.9031 31.5356 45.3064L27.5451 45.0307ZM27.5928 40.9774C27.6152 42.402 27.6348 43.7278 27.545 45.0312L31.5356 45.306C31.6389 43.8057 31.6142 42.3103 31.5923 40.9145L27.5928 40.9774ZM27.5929 40.9838L27.5929 40.9844L31.5921 40.9075L31.5921 40.9069L27.5929 40.9838ZM27.5734 39.1193C27.5734 39.7457 27.5832 40.3704 27.5928 40.9768L31.5923 40.914C31.5827 40.3023 31.5734 39.7091 31.5734 39.1193H27.5734ZM27.5734 38.5092V39.1193H31.5734V38.5092H27.5734ZM32.5061 38.6197C32.0134 38.1247 31.5142 37.6232 30.9897 37.0971L28.1571 39.9214C28.6802 40.446 29.1782 40.9464 29.671 41.4415L32.5061 38.6197Z" fill="url(#paint0_linear_185_140)" fill-opacity="0.64" mask="url(#path-1-inside-1_185_140)"/>
<path d="M33.9725 1.68658L35.2258 0.127961L35.2164 0.12049L33.9725 1.68658ZM60.3044 11.4097L58.8865 12.8202L58.8865 12.8202L60.3044 11.4097ZM33.4738 67.7901L32.6643 65.9612L32.6573 65.9643L32.6502 65.9675L33.4738 67.7901ZM31.5263 67.7901L32.3498 65.9675L32.3427 65.9643L32.3357 65.9612L31.5263 67.7901ZM4.69562 11.4097L3.27777 9.99911L3.27777 9.99911L4.69562 11.4097ZM31.0275 1.68658L29.7835 0.120462L29.7742 0.127979L31.0275 1.68658ZM19.9776 16.9581L21.5891 15.7736L21.5873 15.7711L19.9776 16.9581ZM19.208 15.9138L20.8188 14.7283L19.2064 12.5373L17.5961 14.7299L19.208 15.9138ZM19.978 16.9587L18.3665 18.1432L18.3684 18.1457L19.978 16.9587ZM22.5106 20.4215L20.887 21.5892L20.8902 21.5937L22.5106 20.4215ZM22.6155 20.9697L20.6158 20.9997L20.6158 21.0001L22.6155 20.9697ZM22.6158 20.9894L24.6158 20.9856L24.6158 20.9723L24.6156 20.959L22.6158 20.9894ZM22.6192 28.0887L24.6192 28.0892V28.0892L22.6192 28.0887ZM22.6188 31.0806H20.6188V33.0806H22.6188V31.0806ZM42.4767 31.0806V33.0806H44.4767V31.0806H42.4767ZM42.4762 28.5957L40.4762 28.5964L42.4762 28.5957ZM42.4887 20.9834L44.4887 20.9948V20.9834H42.4887ZM42.7381 20.2141L41.1125 19.049L41.1107 19.0516L42.7381 20.2141ZM44.9879 17.1412L43.4262 15.8918L43.4026 15.9213L43.3801 15.9516L44.9879 17.1412ZM44.988 17.1411L46.5497 18.3905L46.5733 18.361L46.5957 18.3307L44.988 17.1411ZM45.8725 15.9438L47.3932 14.6448L45.7565 12.7288L44.2621 14.7578L45.8725 15.9438ZM45.9618 16.0474L47.4735 14.738L47.4735 14.738L45.9618 16.0474ZM46.176 16.3075L44.5659 17.4939L44.5677 17.4963L46.176 16.3075ZM46.5272 16.7826L44.9189 17.9715L44.9272 17.9826L46.5272 16.7826ZM46.5273 16.7827L48.1355 15.5937L48.1273 15.5827L46.5273 16.7827ZM49.0519 20.2201L50.6812 19.0603L50.6763 19.0533L50.6713 19.0464L49.0519 20.2201ZM49.2803 20.8512H47.2803V20.8537L49.2803 20.8512ZM49.2894 45.1302L47.2894 45.1301V45.1302H49.2894ZM49.2894 45.1391L51.2894 45.1391V45.1391H49.2894ZM49.2893 49.9979L47.2893 49.9978V49.9979H49.2893ZM49.2776 50.1549L51.2658 50.3722L51.2658 50.3721L49.2776 50.1549ZM49.2652 50.2834V52.2834H51.1208L51.2596 50.433L49.2652 50.2834ZM42.4947 50.2834H40.4947V52.2834H42.4947V50.2834ZM42.4947 35.1375H44.4947V33.1375H42.4947V35.1375ZM22.6429 35.1375V33.1375H20.6429V35.1375H22.6429ZM22.6429 50.2924V52.2924H24.6429V50.2924H22.6429ZM15.7942 50.2924H13.7942V52.2924H15.7942V50.2924ZM15.8062 21.0886L17.8062 21.0911V21.0886H15.8062ZM16.1188 20.136L14.4882 18.9778L14.4838 18.9841L16.1188 20.136ZM18.3033 17.1407L19.9119 18.3292L19.9164 18.3231L19.9208 18.317L18.3033 17.1407ZM18.3033 17.1407L16.6948 15.9521L16.6903 15.9582L16.6859 15.9643L18.3033 17.1407ZM31.1001 40.0422L32.5177 38.6314L32.5175 38.6312L31.1001 40.0422ZM31.0885 40.0306L29.671 41.4415L29.6712 41.4417L31.0885 40.0306ZM31.1153 40.0575L29.6978 41.4683L29.6978 41.4684L31.1153 40.0575ZM32.4944 41.4422L31.078 42.8543L32.5274 44.3082L33.9429 42.8212L32.4944 41.4422ZM34.2741 39.5685L35.725 40.9451L35.7262 40.9438L34.2741 39.5685ZM34.275 39.5675L32.8242 38.1909L32.8229 38.1923L34.275 39.5675ZM34.298 39.5433L35.7489 40.9199L35.7489 40.9198L34.298 39.5433ZM35.2681 38.5212L36.3546 36.8421L34.9611 35.9404L33.818 37.1439L35.2681 38.5212ZM35.3133 38.5512L34.1982 40.2114L34.1985 40.2116L35.3133 38.5512ZM35.3447 38.5723L36.4653 36.9157L36.4652 36.9157L35.3447 38.5723ZM35.4213 38.6234L37.4171 38.4933L37.3517 37.4904L36.5079 36.9443L35.4213 38.6234ZM35.4343 38.7742L33.4437 38.967L33.4437 38.967L35.4343 38.7742ZM35.4523 40.8625L33.4523 40.8641V40.8641L35.4523 40.8625ZM35.4394 46.9416L33.4394 46.9256L33.4394 46.9336V46.9416H35.4394ZM35.1358 47.6688L33.6859 46.2913L33.685 46.2923L35.1358 47.6688ZM33.2619 49.5649L31.8536 48.1448L31.8198 48.1783L31.7876 48.2134L33.2619 49.5649ZM33.2619 49.565L34.6702 50.985L34.704 50.9515L34.7362 50.9164L33.2619 49.565ZM32.5124 50.3104L31.0854 51.7117L32.4995 53.1516L33.9266 51.7246L32.5124 50.3104ZM32.0571 49.8206L33.5409 48.4795L33.5409 48.4795L32.0571 49.8206ZM31.0849 48.8769L29.8947 50.4842L29.8982 50.4868L31.0849 48.8769ZM29.5403 45.1686L31.5356 45.3064L31.5356 45.306L29.5403 45.1686ZM29.5925 40.946L31.5923 40.9145L31.5921 40.9075L29.5925 40.946ZM29.5925 40.9454L27.5927 40.9768L27.5929 40.9838L29.5925 40.9454ZM29.5734 38.5092L30.9897 37.0971L27.5734 33.6708V38.5092H29.5734ZM58.625 8.71046C52.4508 8.71046 46.6348 6.6153 42.2843 4.44471C37.9474 2.28086 35.2062 0.112241 35.2258 0.127989L32.7192 3.24517C32.8575 3.35641 35.8401 5.69973 40.4985 8.02395C45.1434 10.3414 51.5942 12.7105 58.625 12.7105V8.71046ZM61.7222 9.99912C60.9026 9.17521 59.7887 8.71046 58.625 8.71046V12.7105C58.7211 12.7105 58.8154 12.7487 58.8865 12.8202L61.7222 9.99912ZM63 13.0977C63 11.9375 62.5416 10.8227 61.7222 9.99911L58.8865 12.8202C58.958 12.8921 59 12.9917 59 13.0977H63ZM63 34.5832V13.0977H59V34.5832H63ZM34.2832 69.619C44.8911 64.924 52.1327 60.4739 56.6868 54.968C61.3223 49.3635 63 42.8859 63 34.5832H59C59 42.299 57.4596 47.7577 53.6045 52.4186C49.6679 57.1779 43.1464 61.322 32.6643 65.9612L34.2832 69.619ZM32.5 70C33.1199 70 33.7325 69.8679 34.2973 69.6127L32.6502 65.9675C32.6026 65.989 32.5514 66 32.5 66V70ZM30.7027 69.6127C31.2675 69.8679 31.8801 70 32.5 70V66C32.4486 66 32.3974 65.989 32.3498 65.9675L30.7027 69.6127ZM2 34.5832C2 42.8859 3.67768 49.3635 8.31324 54.968C12.8673 60.4739 20.1089 64.924 30.7168 69.619L32.3357 65.9612C21.8536 61.322 15.3321 57.1779 11.3955 52.4186C7.54045 47.7577 6 42.299 6 34.5832H2ZM2 13.0977V34.5832H6V13.0977H2ZM3.27777 9.99911C2.45845 10.8227 2 11.9375 2 13.0977H6C6 12.9917 6.042 12.8921 6.11348 12.8202L3.27777 9.99911ZM6.375 8.71046C5.21134 8.71046 4.09744 9.17521 3.27777 9.99911L6.11347 12.8202C6.1846 12.7487 6.27888 12.7105 6.375 12.7105V8.71046ZM29.7742 0.127979C29.7909 0.114514 27.0617 2.28235 22.7326 4.44518C18.3897 6.61484 12.5736 8.71046 6.375 8.71046V12.7105C13.429 12.7105 19.8797 10.3419 24.5203 8.02347C29.1745 5.69823 32.1453 3.35413 32.2808 3.24518L29.7742 0.127979ZM32.5 -0.827637C31.5129 -0.827637 30.5558 -0.49292 29.7836 0.12049L32.2714 3.25266C32.3378 3.19998 32.4183 3.17236 32.5 3.17236V-0.827637ZM35.2164 0.12049C34.4442 -0.492921 33.4871 -0.827637 32.5 -0.827637V3.17236C32.5817 3.17236 32.6622 3.19998 32.7286 3.25266L35.2164 0.12049ZM21.5873 15.7711C21.3328 15.426 21.0769 15.0791 20.8188 14.7283L17.5972 17.0992C17.8567 17.4518 18.1137 17.8003 18.368 18.1451L21.5873 15.7711ZM21.5896 15.7742L21.5891 15.7736L18.3661 18.1426L18.3665 18.1432L21.5896 15.7742ZM24.1343 19.2537C23.2996 18.093 22.4515 16.943 21.5877 15.7717L18.3684 18.1457C19.2346 19.3204 20.0685 20.4512 20.887 21.5892L24.1343 19.2537ZM24.6153 20.9398C24.6142 20.869 24.6135 20.6395 24.5797 20.3983C24.5482 20.1737 24.4609 19.7051 24.1311 19.2492L20.8902 21.5937C20.7674 21.424 20.703 21.2678 20.6693 21.1659C20.6357 21.0641 20.6231 20.9873 20.6184 20.9539C20.6135 20.9191 20.6133 20.902 20.6139 20.9146C20.6145 20.9288 20.615 20.948 20.6158 20.9997L24.6153 20.9398ZM24.6156 20.959L24.6153 20.9393L20.6158 21.0001L20.6161 21.0198L24.6156 20.959ZM24.6192 28.0892C24.6198 25.7231 24.6203 23.3546 24.6158 20.9856L20.6158 20.9932C20.6203 23.3572 20.6198 25.7215 20.6192 28.0883L24.6192 28.0892ZM24.6188 30.4556C24.6188 29.6669 24.619 28.8782 24.6192 28.0892L20.6192 28.0883C20.619 28.8772 20.6188 29.6663 20.6188 30.4556H24.6188ZM24.6188 31.0806V30.4556H20.6188V31.0806H24.6188ZM42.4767 29.0806H22.6188V33.0806H42.4767V29.0806ZM40.4767 30.4976V31.0806H44.4767V30.4976H40.4767ZM40.4762 28.5964C40.4764 29.2306 40.4767 29.8642 40.4767 30.4976H44.4767C44.4767 29.8633 44.4764 29.2289 44.4762 28.5949L40.4762 28.5964ZM40.4887 20.972C40.4743 23.5156 40.4752 26.0601 40.4762 28.5964L44.4762 28.5949C44.4752 26.0566 44.4743 23.5242 44.4887 20.9948L40.4887 20.972ZM41.1107 19.0516C40.7261 19.59 40.4887 20.2946 40.4887 20.9834H44.4887C44.4887 21.0973 44.4693 21.1676 44.4587 21.2003C44.4478 21.2338 44.4242 21.2945 44.3656 21.3766L41.1107 19.0516ZM43.3801 15.9516C42.6191 16.9803 41.8586 18.0081 41.1125 19.049L44.3637 21.3792C45.0892 20.367 45.8316 19.3635 46.5957 18.3307L43.3801 15.9516ZM43.4262 15.8917L43.4262 15.8918L46.5496 18.3906L46.5497 18.3905L43.4262 15.8917ZM44.2621 14.7578C43.9673 15.158 43.6737 15.5549 43.3802 15.9516L46.5957 18.3307C46.8888 17.9346 47.185 17.5342 47.4828 17.1299L44.2621 14.7578ZM47.4735 14.738C47.4449 14.7049 47.4195 14.6756 47.3932 14.6448L44.3517 17.2428C44.3883 17.2856 44.4223 17.3249 44.45 17.3569L47.4735 14.738ZM47.7861 15.121C47.6682 14.961 47.5447 14.8202 47.4735 14.738L44.45 17.3569C44.5432 17.4645 44.5585 17.4838 44.5659 17.4939L47.7861 15.121ZM48.1355 15.5938L47.7843 15.1186L44.5677 17.4963L44.9189 17.9715L48.1355 15.5938ZM48.1273 15.5827L48.1272 15.5826L44.9272 17.9826L44.9273 17.9827L48.1273 15.5827ZM50.6713 19.0464C49.8308 17.8867 48.9795 16.7354 48.1355 15.5937L44.9191 17.9716C45.765 19.1159 46.6049 20.252 47.4325 21.3938L50.6713 19.0464ZM51.2803 20.8512C51.2803 20.0855 50.955 19.4448 50.6812 19.0603L47.4225 21.38C47.3911 21.3358 47.3655 21.2896 47.3434 21.2314C47.324 21.1803 47.2803 21.0491 47.2803 20.8512H51.2803ZM51.2894 45.1303C51.2899 37.0375 51.2903 28.9432 51.2803 20.8487L47.2803 20.8537C47.2903 28.9452 47.2899 37.0369 47.2894 45.1301L51.2894 45.1303ZM51.2894 45.1391V45.1302H47.2894V45.1391H51.2894ZM51.2893 49.9979L51.2894 45.1391L47.2894 45.139L47.2893 49.9978L51.2893 49.9979ZM51.2658 50.3721C51.2697 50.336 51.2893 50.1764 51.2893 49.9979H47.2893C47.2893 49.9519 47.2918 49.9191 47.2926 49.9092C47.293 49.9043 47.2931 49.9032 47.2926 49.9085C47.292 49.9146 47.2912 49.922 47.2895 49.9376L51.2658 50.3721ZM51.2596 50.433C51.2604 50.4227 51.2615 50.4118 51.2658 50.3722L47.2895 49.9376C47.2854 49.9746 47.2773 50.0476 47.2708 50.1337L51.2596 50.433ZM42.4947 52.2834H49.2652V48.2834H42.4947V52.2834ZM40.4947 35.1375V50.2834H44.4947V35.1375H40.4947ZM22.6429 37.1375H42.4947V33.1375H22.6429V37.1375ZM24.6429 50.2924V35.1375H20.6429V50.2924H24.6429ZM15.7942 52.2924H22.6429V48.2924H15.7942V52.2924ZM13.7942 49.6853V50.2924H17.7942V49.6853H13.7942ZM13.8062 21.0861C13.7942 30.6198 13.7942 40.1503 13.7942 49.6853H17.7942C17.7942 40.1499 17.7942 30.6219 17.8062 21.0911L13.8062 21.0861ZM14.4838 18.9841C14.0833 19.5525 13.8062 20.3158 13.8062 21.0886H17.8062C17.8062 21.1373 17.8016 21.1707 17.7985 21.1882C17.7954 21.2062 17.7921 21.2169 17.7904 21.222C17.7887 21.2273 17.7864 21.233 17.7826 21.2408C17.7789 21.2482 17.7704 21.2643 17.7537 21.2879L14.4838 18.9841ZM16.6948 15.9522C15.9509 16.959 15.2111 17.9601 14.4882 18.9778L17.7493 21.2941C18.4468 20.3122 19.1641 19.3412 19.9119 18.3292L16.6948 15.9522ZM16.6859 15.9643L16.6859 15.9644L19.9208 18.317L19.9208 18.317L16.6859 15.9643ZM17.5961 14.7299C17.2938 15.1415 16.9939 15.5474 16.6948 15.9521L19.9119 18.3292C20.2104 17.9251 20.5137 17.5147 20.82 17.0977L17.5961 14.7299ZM32.5175 38.6312L32.5059 38.6195L29.6712 41.4417L29.6828 41.4533L32.5175 38.6312ZM32.5329 38.6467L32.5177 38.6314L29.6826 41.4531L29.6978 41.4683L32.5329 38.6467ZM33.9107 40.0302C33.446 39.564 32.9921 39.108 32.5329 38.6466L29.6978 41.4684C30.1569 41.9297 30.6119 42.3868 31.078 42.8543L33.9107 40.0302ZM32.8232 38.192C32.2396 38.8071 31.6511 39.4273 31.0458 40.0632L33.9429 42.8212C34.551 42.1825 35.1417 41.5598 35.725 40.9451L32.8232 38.192ZM32.8229 38.1923L32.822 38.1933L35.7262 40.9438L35.7271 40.9428L32.8229 38.1923ZM32.8472 38.1667L32.8242 38.1909L35.7259 40.9441L35.7489 40.9199L32.8472 38.1667ZM33.818 37.1439C33.4948 37.4841 33.1717 37.8247 32.8471 38.1667L35.7489 40.9198C36.0736 40.5776 36.3959 40.2379 36.7182 39.8986L33.818 37.1439ZM36.4284 36.8909C36.4082 36.8773 36.3828 36.8604 36.3546 36.8421L34.1815 40.2004C34.1835 40.2016 34.1883 40.2048 34.1982 40.2114L36.4284 36.8909ZM36.4652 36.9157C36.4552 36.909 36.4419 36.8999 36.4282 36.8907L34.1985 40.2116C34.2056 40.2164 34.2133 40.2216 34.2242 40.229L36.4652 36.9157ZM36.5079 36.9443C36.5024 36.9408 36.4938 36.935 36.4653 36.9157L34.2242 40.229C34.2467 40.2442 34.2892 40.273 34.3347 40.3025L36.5079 36.9443ZM37.425 38.5815C37.4197 38.5259 37.418 38.507 37.4171 38.4933L33.4256 38.7535C33.4312 38.8404 33.4393 38.922 33.4437 38.967L37.425 38.5815ZM37.4514 39.0381C37.4514 38.8373 37.432 38.653 37.425 38.5815L33.4437 38.967C33.4459 38.99 33.4474 39.006 33.4488 39.021C33.4501 39.0354 33.4509 39.0447 33.4513 39.0511C33.4523 39.0644 33.4514 39.0574 33.4514 39.0381H37.4514ZM37.4523 40.8609C37.4519 40.2528 37.4514 39.6455 37.4514 39.0381H33.4514C33.4514 39.6473 33.4519 40.2562 33.4523 40.8641L37.4523 40.8609ZM37.4393 46.9576C37.4556 44.9201 37.4539 42.8859 37.4523 40.8609L33.4523 40.8641C33.454 42.8919 33.4555 44.9086 33.4394 46.9256L37.4393 46.9576ZM36.5858 49.0463C37.0674 48.5395 37.4394 47.7597 37.4394 46.9416H33.4394C33.4394 46.7323 33.4887 46.6008 33.5105 46.5493C33.5342 46.4934 33.5812 46.4016 33.6859 46.2913L36.5858 49.0463ZM34.6703 50.985C35.3123 50.3483 35.9576 49.7085 36.5867 49.0454L33.685 46.2923C33.1049 46.9037 32.5032 47.5006 31.8536 48.1448L34.6703 50.985ZM34.7362 50.9164L34.7362 50.9163L31.7876 48.2134L31.7876 48.2135L34.7362 50.9164ZM33.9266 51.7246C34.1764 51.4748 34.4232 51.2299 34.6702 50.985L31.8535 48.1449C31.6075 48.3889 31.3548 48.6395 31.0982 48.8961L33.9266 51.7246ZM30.5734 51.1618C30.7167 51.3202 30.8935 51.5163 31.0854 51.7117L33.9393 48.909C33.8149 48.7822 33.6927 48.6475 33.5409 48.4795L30.5734 51.1618ZM29.8982 50.4868C30.0651 50.6098 30.2354 50.7878 30.5734 51.1618L33.5409 48.4795C33.2548 48.1631 32.819 47.6705 32.2717 47.267L29.8982 50.4868ZM27.5451 45.0307C27.4781 45.9997 27.5497 47.0101 27.9322 47.9858C28.3247 48.9873 28.9906 49.8146 29.8947 50.4842L32.2752 47.2697C31.9052 46.9956 31.7447 46.7515 31.6563 46.5262C31.5579 46.2751 31.4943 45.9031 31.5356 45.3064L27.5451 45.0307ZM27.5928 40.9774C27.6152 42.402 27.6348 43.7278 27.545 45.0312L31.5356 45.306C31.6389 43.8057 31.6142 42.3103 31.5923 40.9145L27.5928 40.9774ZM27.5929 40.9838L27.5929 40.9844L31.5921 40.9075L31.5921 40.9069L27.5929 40.9838ZM27.5734 39.1193C27.5734 39.7457 27.5832 40.3704 27.5928 40.9768L31.5923 40.914C31.5827 40.3023 31.5734 39.7091 31.5734 39.1193H27.5734ZM27.5734 38.5092V39.1193H31.5734V38.5092H27.5734ZM32.5061 38.6197C32.0134 38.1247 31.5142 37.6232 30.9897 37.0971L28.1571 39.9214C28.6802 40.446 29.1782 40.9464 29.671 41.4415L32.5061 38.6197Z" fill="url(#paint1_linear_185_140)" fill-opacity="0.3" mask="url(#path-1-inside-1_185_140)"/>
</g>
<defs>
<filter id="filter0_d_185_140" x="0.8" y="0.972363" width="63.4" height="73.2276" filterUnits="userSpaceOnUse" color-interpolation-filters="sRGB">
<feFlood flood-opacity="0" result="BackgroundImageFix"/>
<feColorMatrix in="SourceAlpha" type="matrix" values="0 0 0 0 0 0 0 0 0 0 0 0 0 0 0 0 0 0 127 0" result="hardAlpha"/>
<feOffset dy="3"/>
<feGaussianBlur stdDeviation="1.6"/>
<feComposite in2="hardAlpha" operator="out"/>
<feColorMatrix type="matrix" values="0 0 0 0 1 0 0 0 0 0 0 0 0 0 0 0 0 0 0.55 0"/>
<feBlend mode="normal" in2="BackgroundImageFix" result="effect1_dropShadow_185_140"/>
<feBlend mode="normal" in="SourceGraphic" in2="effect1_dropShadow_185_140" result="shape"/>
</filter>
<linearGradient id="paint0_linear_185_140" x1="32.5" y1="1.17236" x2="32.5" y2="68" gradientUnits="userSpaceOnUse">
<stop stop-color="white"/>
<stop offset="1" stop-color="white" stop-opacity="0"/>
</linearGradient>
<linearGradient id="paint1_linear_185_140" x1="32.5" y1="1.17236" x2="32.5" y2="68" gradientUnits="userSpaceOnUse">
<stop offset="0.631931" stop-opacity="0"/>
<stop offset="1"/>
</linearGradient>
</defs>
</svg>
