<svg width="65" height="72" viewBox="0 0 65 72" fill="none" xmlns="http://www.w3.org/2000/svg">
<g filter="url(#filter0_d_185_138)">
<path d="M61.6 23.4V61.776C61.6 63.5635 60.1766 65 58.4211 65H7.17888C5.42384 65 4 63.5792 4 61.8262V4.17376C4 2.45699 5.43021 1 7.19443 1H39.2V20.2C39.2 21.9673 40.6326 23.4 42.4 23.4H61.6ZM61.6 17H45.6V1.01018L61.6 17ZM20 17V23.4H29.6V17H20ZM20 29.8V36.2H45.6V29.8H20ZM20 42.6V49H45.6V42.6H20Z" fill="#FF0000"/>
<path d="M20 16H19V17V23.4V24.4H20H29.6H30.6V23.4V17V16H29.6H20ZM20 28.8H19V29.8V36.2V37.2H20H45.6H46.6V36.2V29.8V28.8H45.6H20ZM20 41.6H19V42.6V49V50H20H45.6H46.6V49V42.6V41.6H45.6H20ZM60.6 24.4V61.776C60.6 63.0231 59.6125 64 58.4211 64H7.17888C5.97445 64 5 63.0252 5 61.8262V4.17376C5 3.00803 5.98374 2 7.19443 2H38.2V20.2C38.2 22.5196 40.0803 24.4 42.4 24.4H60.6ZM46.6 3.4233L59.1847 16H46.6V3.4233Z" stroke="url(#paint0_linear_185_138)" stroke-opacity="0.64" stroke-width="2"/>
<path d="M20 16H19V17V23.4V24.4H20H29.6H30.6V23.4V17V16H29.6H20ZM20 28.8H19V29.8V36.2V37.2H20H45.6H46.6V36.2V29.8V28.8H45.6H20ZM20 41.6H19V42.6V49V50H20H45.6H46.6V49V42.6V41.6H45.6H20ZM60.6 24.4V61.776C60.6 63.0231 59.6125 64 58.4211 64H7.17888C5.97445 64 5 63.0252 5 61.8262V4.17376C5 3.00803 5.98374 2 7.19443 2H38.2V20.2C38.2 22.5196 40.0803 24.4 42.4 24.4H60.6ZM46.6 3.4233L59.1847 16H46.6V3.4233Z" stroke="url(#paint1_linear_185_138)" stroke-opacity="0.3" stroke-width="2"/>
</g>
<defs>
<filter id="filter0_d_185_138" x="0.8" y="0.8" width="64.0001" height="70.4" filterUnits="userSpaceOnUse" color-interpolation-filters="sRGB">
<feFlood flood-opacity="0" result="BackgroundImageFix"/>
<feColorMatrix in="SourceAlpha" type="matrix" values="0 0 0 0 0 0 0 0 0 0 0 0 0 0 0 0 0 0 127 0" result="hardAlpha"/>
<feOffset dy="3"/>
<feGaussianBlur stdDeviation="1.6"/>
<feComposite in2="hardAlpha" operator="out"/>
<feColorMatrix type="matrix" values="0 0 0 0 1 0 0 0 0 0 0 0 0 0 0 0 0 0 0.55 0"/>
<feBlend mode="normal" in2="BackgroundImageFix" result="effect1_dropShadow_185_138"/>
<feBlend mode="normal" in="SourceGraphic" in2="effect1_dropShadow_185_138" result="shape"/>
</filter>
<linearGradient id="paint0_linear_185_138" x1="32.8" y1="1" x2="32.8" y2="65" gradientUnits="userSpaceOnUse">
<stop stop-color="white"/>
<stop offset="1" stop-color="white" stop-opacity="0"/>
</linearGradient>
<linearGradient id="paint1_linear_185_138" x1="32.8" y1="1" x2="32.8" y2="65" gradientUnits="userSpaceOnUse">
<stop offset="0.631931" stop-opacity="0"/>
<stop offset="1"/>
</linearGradient>
</defs>
</svg>
