<svg width="72" height="72" viewBox="0 0 72 72" fill="none" xmlns="http://www.w3.org/2000/svg">
<g filter="url(#filter0_d_185_128)">
<path d="M19.2381 1V7.09524H7.04762C5.36448 7.09524 4 8.45972 4 10.1429V58.9048C4 60.588 5.36448 61.9524 7.04762 61.9524H30.6807C27.3348 57.7784 25.3333 52.4801 25.3333 46.7143C25.3333 33.249 36.249 22.3333 49.7143 22.3333C55.4801 22.3333 60.7784 24.3348 64.9524 27.6808V10.1429C64.9524 8.45972 63.588 7.09524 61.9048 7.09524H49.7143V1H43.619V7.09524H25.3333V1H19.2381ZM68 46.7143C68 56.8132 59.8132 65 49.7143 65C39.6154 65 31.4286 56.8132 31.4286 46.7143C31.4286 36.6154 39.6154 28.4286 49.7143 28.4286C59.8132 28.4286 68 36.6154 68 46.7143ZM46.6667 34.5238V47.9766L53.6546 54.9645L57.9645 50.6546L52.7619 45.452V34.5238H46.6667Z" fill="#FF0000"/>
<path d="M19.2381 8.09524H20.2381V7.09524V2H24.3333V7.09524V8.09524H25.3333H43.619H44.619V7.09524V2H48.7143V7.09524V8.09524H49.7143H61.9048C63.0357 8.09524 63.9524 9.01199 63.9524 10.1429V25.7002C59.8922 22.9441 54.9903 21.3333 49.7143 21.3333C35.6967 21.3333 24.3333 32.6967 24.3333 46.7143C24.3333 51.9903 25.9441 56.8922 28.7002 60.9524H7.04762C5.91675 60.9524 5 60.0357 5 58.9048V10.1429C5 9.012 5.91676 8.09524 7.04762 8.09524H19.2381ZM46.6667 33.5238H45.6667V34.5238V47.9766V48.3908L45.9596 48.6837L52.9474 55.6716L53.6546 56.3787L54.3617 55.6716L58.6716 51.3617L59.3787 50.6546L58.6716 49.9474L53.7619 45.0377V34.5238V33.5238H52.7619H46.6667ZM67 46.7143C67 56.2609 59.2609 64 49.7143 64C40.1677 64 32.4286 56.2609 32.4286 46.7143C32.4286 37.1677 40.1677 29.4286 49.7143 29.4286C59.2609 29.4286 67 37.1677 67 46.7143Z" stroke="url(#paint0_linear_185_128)" stroke-opacity="0.64" stroke-width="2"/>
<path d="M19.2381 8.09524H20.2381V7.09524V2H24.3333V7.09524V8.09524H25.3333H43.619H44.619V7.09524V2H48.7143V7.09524V8.09524H49.7143H61.9048C63.0357 8.09524 63.9524 9.01199 63.9524 10.1429V25.7002C59.8922 22.9441 54.9903 21.3333 49.7143 21.3333C35.6967 21.3333 24.3333 32.6967 24.3333 46.7143C24.3333 51.9903 25.9441 56.8922 28.7002 60.9524H7.04762C5.91675 60.9524 5 60.0357 5 58.9048V10.1429C5 9.012 5.91676 8.09524 7.04762 8.09524H19.2381ZM46.6667 33.5238H45.6667V34.5238V47.9766V48.3908L45.9596 48.6837L52.9474 55.6716L53.6546 56.3787L54.3617 55.6716L58.6716 51.3617L59.3787 50.6546L58.6716 49.9474L53.7619 45.0377V34.5238V33.5238H52.7619H46.6667ZM67 46.7143C67 56.2609 59.2609 64 49.7143 64C40.1677 64 32.4286 56.2609 32.4286 46.7143C32.4286 37.1677 40.1677 29.4286 49.7143 29.4286C59.2609 29.4286 67 37.1677 67 46.7143Z" stroke="url(#paint1_linear_185_128)" stroke-opacity="0.3" stroke-width="2"/>
</g>
<defs>
<filter id="filter0_d_185_128" x="0.8" y="0.8" width="70.4" height="70.4" filterUnits="userSpaceOnUse" color-interpolation-filters="sRGB">
<feFlood flood-opacity="0" result="BackgroundImageFix"/>
<feColorMatrix in="SourceAlpha" type="matrix" values="0 0 0 0 0 0 0 0 0 0 0 0 0 0 0 0 0 0 127 0" result="hardAlpha"/>
<feOffset dy="3"/>
<feGaussianBlur stdDeviation="1.6"/>
<feComposite in2="hardAlpha" operator="out"/>
<feColorMatrix type="matrix" values="0 0 0 0 1 0 0 0 0 0 0 0 0 0 0 0 0 0 0.55 0"/>
<feBlend mode="normal" in2="BackgroundImageFix" result="effect1_dropShadow_185_128"/>
<feBlend mode="normal" in="SourceGraphic" in2="effect1_dropShadow_185_128" result="shape"/>
</filter>
<linearGradient id="paint0_linear_185_128" x1="36" y1="1" x2="36" y2="65" gradientUnits="userSpaceOnUse">
<stop stop-color="white"/>
<stop offset="1" stop-color="white" stop-opacity="0"/>
</linearGradient>
<linearGradient id="paint1_linear_185_128" x1="36" y1="1" x2="36" y2="65" gradientUnits="userSpaceOnUse">
<stop offset="0.631931" stop-opacity="0"/>
<stop offset="1"/>
</linearGradient>
</defs>
</svg>
