<svg width="60" height="72" viewBox="0 0 60 72" fill="none" xmlns="http://www.w3.org/2000/svg">
<g filter="url(#filter0_d_185_136)">
<path d="M30.1818 1L54.0855 6.31194C55.4167 6.60774 56.3636 7.78828 56.3636 9.15177V38.2041C56.3636 44.04 53.447 49.4899 48.5911 52.7271L30.1818 65L11.7725 52.7271C6.91668 49.4899 4 44.04 4 38.2041V9.15177C4 7.78828 4.947 6.60774 6.27802 6.31194L30.1818 1ZM43.1343 22.009L28.7328 36.4063L20.5068 28.1799L16.3927 32.2943L28.7348 44.6364L47.2483 26.123L43.1343 22.009Z" fill="#FF0000"/>
<path d="M43.8414 21.3019L43.1344 20.5948L42.4273 21.3018L28.7329 34.9921L21.2139 27.4728L20.5068 26.7657L19.7997 27.4728L15.6856 31.5872L14.9785 32.2943L15.6856 33.0014L28.0277 45.3435L28.7348 46.0506L29.4419 45.3435L47.9554 26.8301L48.6625 26.123L47.9554 25.4159L43.8414 21.3019ZM53.8686 7.28813L54.0855 6.31194L53.8686 7.28813C54.7423 7.48226 55.3636 8.25697 55.3636 9.15177V38.2041C55.3636 43.7057 52.6141 48.8433 48.0364 51.8951L30.1818 63.7981L12.3272 51.8951C7.74958 48.8433 5 43.7056 5 38.2041V9.15177C5 8.25698 5.62146 7.48225 6.49495 7.28813C6.49496 7.28813 6.49496 7.28813 6.49496 7.28813L30.1818 2.02439L53.8686 7.28813Z" stroke="url(#paint0_linear_185_136)" stroke-opacity="0.64" stroke-width="2"/>
<path d="M43.8414 21.3019L43.1344 20.5948L42.4273 21.3018L28.7329 34.9921L21.2139 27.4728L20.5068 26.7657L19.7997 27.4728L15.6856 31.5872L14.9785 32.2943L15.6856 33.0014L28.0277 45.3435L28.7348 46.0506L29.4419 45.3435L47.9554 26.8301L48.6625 26.123L47.9554 25.4159L43.8414 21.3019ZM53.8686 7.28813L54.0855 6.31194L53.8686 7.28813C54.7423 7.48226 55.3636 8.25697 55.3636 9.15177V38.2041C55.3636 43.7057 52.6141 48.8433 48.0364 51.8951L30.1818 63.7981L12.3272 51.8951C7.74958 48.8433 5 43.7056 5 38.2041V9.15177C5 8.25698 5.62146 7.48225 6.49495 7.28813C6.49496 7.28813 6.49496 7.28813 6.49496 7.28813L30.1818 2.02439L53.8686 7.28813Z" stroke="url(#paint1_linear_185_136)" stroke-opacity="0.3" stroke-width="2"/>
</g>
<defs>
<filter id="filter0_d_185_136" x="0.8" y="0.8" width="58.7636" height="70.4" filterUnits="userSpaceOnUse" color-interpolation-filters="sRGB">
<feFlood flood-opacity="0" result="BackgroundImageFix"/>
<feColorMatrix in="SourceAlpha" type="matrix" values="0 0 0 0 0 0 0 0 0 0 0 0 0 0 0 0 0 0 127 0" result="hardAlpha"/>
<feOffset dy="3"/>
<feGaussianBlur stdDeviation="1.6"/>
<feComposite in2="hardAlpha" operator="out"/>
<feColorMatrix type="matrix" values="0 0 0 0 1 0 0 0 0 0 0 0 0 0 0 0 0 0 0.55 0"/>
<feBlend mode="normal" in2="BackgroundImageFix" result="effect1_dropShadow_185_136"/>
<feBlend mode="normal" in="SourceGraphic" in2="effect1_dropShadow_185_136" result="shape"/>
</filter>
<linearGradient id="paint0_linear_185_136" x1="30.1818" y1="1" x2="30.1818" y2="65" gradientUnits="userSpaceOnUse">
<stop stop-color="white"/>
<stop offset="1" stop-color="white" stop-opacity="0"/>
</linearGradient>
<linearGradient id="paint1_linear_185_136" x1="30.1818" y1="1" x2="30.1818" y2="65" gradientUnits="userSpaceOnUse">
<stop offset="0.631931" stop-opacity="0"/>
<stop offset="1"/>
</linearGradient>
</defs>
</svg>
