<svg width="19" height="19" viewBox="0 0 19 19" fill="none" xmlns="http://www.w3.org/2000/svg">
<path d="M3.12146 10.193L4.94989 12.0214L6.3641 10.6072L4.53568 8.7788L5.94989 7.36459L7.77835 9.193L9.19255 7.7788L7.3641 5.95038L8.77835 4.53616L10.6067 6.36459L12.0209 4.95038L10.1925 3.12195L13.0209 0.29352C13.4114 -0.0969999 14.0447 -0.0969999 14.4352 0.29352L18.6778 4.53616C19.0683 4.92669 19.0683 5.55985 18.6778 5.95038L5.94989 18.6783C5.55936 19.0688 4.9262 19.0688 4.53568 18.6783L0.29303 14.4357C-0.09749 14.0451 -0.09749 13.412 0.29303 13.0214L3.12146 10.193ZM11.6067 15.8494L15.8493 11.6067L18.4851 14.2424V18.4858H14.2431L11.6067 15.8494ZM3.12132 7.36396L0.29289 4.53553C-0.09763 4.14501 -0.09763 3.51184 0.29289 3.12132L3.12132 0.29289C3.51184 -0.09763 4.14501 -0.09763 4.53553 0.29289L7.36396 3.12132L3.12132 7.36396Z" fill="#1F2226"/>
</svg>
