<svg width="22" height="22" viewBox="0 0 22 22" fill="none" xmlns="http://www.w3.org/2000/svg">
<path d="M3.82843 11.6066L5.94975 13.7279L7.36397 12.3137L5.24265 10.1924L7.36397 8.07107L10.1924 10.8995L11.6066 9.48529L8.77818 6.65686L10.8995 4.53554L13.0208 6.65686L14.435 5.24265L12.3137 3.12132L15.1421 0.292897C15.5326 -0.0976325 16.1658 -0.0976325 16.5563 0.292897L21.5061 5.24265C21.8966 5.63317 21.8966 6.26633 21.5061 6.65686L6.65686 21.5061C6.26634 21.8966 5.63317 21.8966 5.24265 21.5061L0.292897 16.5564C-0.0976325 16.1658 -0.0976325 15.5327 0.292897 15.1422L3.82843 11.6066Z" fill="white"/>
</svg>
