<svg width="24" height="24" viewBox="0 0 24 24" fill="none" xmlns="http://www.w3.org/2000/svg">
<path d="M4.52003 15.4193C4.31598 15.6185 4.18487 15.8768 4.14669 16.1548L3.20003 22.529C3.10163 23.2895 3.5867 24 4.72003 24L11.3067 23.0838C11.594 23.0469 11.8609 22.92 12.0667 22.7225L20.8267 14.2451L13.28 6.94189L4.52003 15.4193Z" fill="white"/>
<path d="M15.1866 5.12266L22.7066 12.4001C23.5448 11.466 24.0043 10.2694 24 9.03233C23.9898 8.04851 23.6907 7.08779 23.1374 6.26238C22.5841 5.43697 21.7995 4.78097 20.8753 4.37098C19.9511 3.961 18.9255 3.81398 17.9181 3.94708C16.9108 4.08018 15.9634 4.48792 15.1866 5.12266Z" fill="white"/>
<path d="M1.33333 2.58064H13.3333C13.6869 2.58064 14.0261 2.4447 14.2761 2.20272C14.5262 1.96074 14.6666 1.63254 14.6666 1.29032C14.6666 0.948108 14.5262 0.619909 14.2761 0.377927C14.0261 0.135944 13.6869 0 13.3333 0H1.33333C0.97971 0 0.640572 0.135944 0.390524 0.377927C0.140476 0.619909 0 0.948108 0 1.29032C0 1.63254 0.140476 1.96074 0.390524 2.20272C0.640572 2.4447 0.97971 2.58064 1.33333 2.58064Z" fill="white"/>
<path d="M1.33333 7.74202H9.33332C9.68694 7.74202 10.0261 7.60608 10.2761 7.36409C10.5262 7.12211 10.6666 6.79391 10.6666 6.4517C10.6666 6.10948 10.5262 5.78129 10.2761 5.5393C10.0261 5.29732 9.68694 5.16138 9.33332 5.16138H1.33333C0.97971 5.16138 0.640572 5.29732 0.390524 5.5393C0.140475 5.78129 0 6.10948 0 6.4517C0 6.79391 0.140475 7.12211 0.390524 7.36409C0.640572 7.60608 0.97971 7.74202 1.33333 7.74202Z" fill="white"/>
<path d="M3.99999 10.3225H1.33333C0.97971 10.3225 0.640572 10.4585 0.390524 10.7004C0.140475 10.9424 0 11.2706 0 11.6128C0 11.955 0.140475 12.2832 0.390524 12.5252C0.640572 12.7672 0.97971 12.9032 1.33333 12.9032H3.99999C4.35361 12.9032 4.69275 12.7672 4.9428 12.5252C5.19285 12.2832 5.33332 11.955 5.33332 11.6128C5.33332 11.2706 5.19285 10.9424 4.9428 10.7004C4.69275 10.4585 4.35361 10.3225 3.99999 10.3225Z" fill="white"/>
</svg>
