<svg width="24" height="24" viewBox="0 0 24 24" fill="none" xmlns="http://www.w3.org/2000/svg">
<path d="M19.7902 21.8472V15.759H12.6774V21.8472H13.3548C13.7289 21.8472 14.0322 22.1501 14.0322 22.5237C14.0322 22.8973 13.7289 23.2002 13.3548 23.2002H10.6451C10.271 23.2002 9.96771 22.8973 9.96771 22.5237C9.96771 22.1501 10.271 21.8472 10.6451 21.8472H11.3226V15.759H4.20969V21.8472H4.88711C5.26125 21.8472 5.56453 22.1501 5.56453 22.5237C5.56453 22.8973 5.2612 23.2002 4.88707 23.2002H2.17742C1.80328 23.2002 1.5 22.8973 1.5 22.5237C1.5 22.1501 1.80328 21.8472 2.17742 21.8472H2.85484V15.759H2.17742C1.80328 15.759 1.5 15.4561 1.5 15.0825C1.5 14.7089 1.80328 14.406 2.17742 14.406H2.85484V8.31782H2.17742C1.80328 8.31782 1.5 8.01495 1.5 7.64134C1.5 7.26772 1.80328 6.96486 2.17742 6.96486H2.85484V6.28838C2.85484 5.91476 3.15813 5.6119 3.53227 5.6119C3.9064 5.6119 4.20969 5.91476 4.20969 6.28838V6.96486H4.76484L4.21891 3.69373C4.15008 3.28139 4.46848 2.90607 4.88711 2.90607V2.56785C4.88711 1.26026 5.94861 0.200195 7.25807 0.200195C8.56752 0.200195 9.62902 1.26022 9.62902 2.56785V2.90607C10.0476 2.90607 10.366 3.28144 10.2972 3.69373L9.75129 6.96486H11.3226V6.28838C11.3226 5.91476 11.6259 5.6119 12 5.6119C12.3742 5.6119 12.6774 5.91476 12.6774 6.28838V6.96486H13.3549C13.729 6.96486 14.0323 7.26772 14.0323 7.64134C14.0323 8.01495 13.729 8.31782 13.3549 8.31782H12.6774V14.406H19.7903V13.7296C19.7903 13.356 20.0936 13.0531 20.4677 13.0531C20.8419 13.0531 21.1452 13.356 21.1452 13.7296V14.406H21.8226C22.1967 14.406 22.5 14.7089 22.5 15.0825C22.5 15.4561 22.1967 15.759 21.8226 15.759H21.1452V21.8472H21.8226C22.1967 21.8472 22.5 22.1501 22.5 22.5237C22.5 22.8973 22.1966 23.2002 21.8224 23.2002H19.1128C18.7387 23.2002 18.4354 22.8973 18.4354 22.5237C18.4354 22.1501 18.7387 21.8472 19.1128 21.8472H19.7902ZM4.20969 14.406H11.3226V8.31782H4.20969V14.406ZM6.24191 2.90603H8.27413V2.56781C8.27413 2.00741 7.8192 1.55311 7.25802 1.55311C6.69684 1.55311 6.24191 2.00741 6.24191 2.56781V2.90603Z" fill="white"/>
</svg>
