<svg width="23" height="22" viewBox="0 0 23 22" fill="none" xmlns="http://www.w3.org/2000/svg">
<path d="M20.7601 5.38385C20.4976 4.33994 19.6426 3.51768 18.5626 3.29603C18.0676 2.77407 17.3701 2.45947 16.6276 2.43087C16.0201 1.80167 15.1576 1.43701 14.2576 1.43701C13.3576 1.43701 12.4951 1.80167 11.8876 2.43087C11.1451 2.45947 10.4476 2.77407 9.95262 3.29603C8.87262 3.51768 8.01012 4.34709 7.75512 5.38385C6.96012 5.68415 6.35262 6.34911 6.12012 7.14991H22.4026C22.1701 6.34911 21.5626 5.68415 20.7676 5.38385H20.7601Z" fill="white"/>
<path d="M3.75 7.15006H5.25V2.14502C5.25 0.965259 4.2375 0 3 0H0.75C0.3375 0 0 0.321753 0 0.715006C0 1.10826 0.3375 1.43001 0.75 1.43001H3C3.4125 1.43001 3.75 1.75177 3.75 2.14502V7.15006Z" fill="white"/>
<path d="M18 12.8701C15.5175 12.8701 13.5 14.7935 13.5 17.1602C13.5 19.5268 15.5175 21.4502 18 21.4502C20.4825 21.4502 22.5 19.5268 22.5 17.1602C22.5 14.7935 20.4825 12.8701 18 12.8701ZM18.375 17.8752H17.625C17.2125 17.8752 16.875 17.5534 16.875 17.1602C16.875 16.7669 17.2125 16.4451 17.625 16.4451H18.375C18.7875 16.4451 19.125 16.7669 19.125 17.1602C19.125 17.5534 18.7875 17.8752 18.375 17.8752Z" fill="white"/>
<path d="M17.91 11.4401C18.9225 11.4401 19.875 11.6832 20.7075 12.1051L22.245 8.58008H3.75V19.2766C3.75 20.4778 4.7775 21.4502 6.03 21.4502C6.7125 21.4502 7.35 21.1642 7.785 20.6708L10.8525 17.1602H11.91C11.91 14.007 14.6025 11.4401 17.91 11.4401ZM6 11.2614C6 10.8681 6.3375 10.5463 6.75 10.5463C7.1625 10.5463 7.5 10.8681 7.5 11.2614V11.6189C7.5 12.0121 7.1625 12.3339 6.75 12.3339C6.3375 12.3339 6 12.0121 6 11.6189V11.2614ZM6 14.1214C6 13.7281 6.3375 13.4064 6.75 13.4064C7.1625 13.4064 7.5 13.7281 7.5 14.1214V14.4789C7.5 14.8721 7.1625 15.1939 6.75 15.1939C6.3375 15.1939 6 14.8721 6 14.4789V14.1214ZM6.63 19.7485C6.48 19.9201 6.2625 20.0202 6.03 20.0202C5.595 20.0202 5.25 19.6841 5.25 19.2766V17.1602H8.895L6.63 19.7485Z" fill="white"/>
</svg>
