<svg width="24" height="24" viewBox="0 0 24 24" fill="none" xmlns="http://www.w3.org/2000/svg">
<path d="M22.6667 16.6667C21.0667 16.6667 19.4667 16.4 17.8667 15.8667C17.6038 15.779 17.2833 15.8066 16.981 15.9115C16.6662 16.0206 16.4147 16.252 16.1791 16.4875C14.6389 18.0278 12.2422 18.4567 10.5225 17.1199C9.25403 16.134 8.10044 14.9865 7.08418 13.7225C5.54068 11.8028 5.99153 9.07514 7.73333 7.33333C8.42421 6.64246 7.85112 5.52297 7.66305 4.5642C7.45733 3.51543 7.33333 2.42438 7.33333 1.33333C7.33333 0.533333 6.8 0 6 0H1.33333C0.533333 0 0 0.533333 0 1.33333C0 13.8667 10.1333 24 22.6667 24C23.4667 24 24 23.4667 24 22.6667V18C24 17.2 23.4667 16.6667 22.6667 16.6667ZM21.2417 10.6703C21.3433 11.3997 21.9303 12 22.6667 12C23.403 12 24.0077 11.4008 23.9282 10.6687C23.3209 5.07411 18.9259 0.679072 13.3313 0.0717514C12.5992 -0.00771931 12 0.596954 12 1.33333C12 2.06971 12.6003 2.65672 13.3297 2.75832C17.4534 3.33277 20.6672 6.54656 21.2417 10.6703ZM15.7933 10.6881C16.0236 11.3876 16.597 12 17.3333 12C18.0697 12 18.6807 11.3973 18.5398 10.6745C18.0231 8.02261 15.9774 5.97694 13.3255 5.46018C12.6027 5.31934 12 5.93029 12 6.66667C12 7.40305 12.6124 7.97643 13.3119 8.20669C14.4942 8.59589 15.4041 9.50583 15.7933 10.6881Z" fill="white"/>
</svg>
