<svg width="30" height="30" viewBox="0 0 30 30" fill="none" xmlns="http://www.w3.org/2000/svg">
<path d="M15 0C23.2842 0 30 6.71572 30 15C30 23.2842 23.2842 30 15 30C12.2492 30 9.6713 29.2596 7.45482 27.967L0.00627029 30L2.03421 22.5472C0.74094 20.3304 0 17.7517 0 15C0 6.71572 6.71573 0 15 0ZM9.58701 7.96249C9.39292 7.97613 9.20263 8.02353 9.02938 8.11217C8.89941 8.17866 8.77875 8.27476 8.58916 8.45379C8.41014 8.62282 8.30639 8.77046 8.19707 8.91279C7.64252 9.6348 7.34447 10.5211 7.35 11.4315C7.35302 12.1674 7.54418 12.8826 7.84607 13.5504C8.45826 14.9046 9.46785 16.3362 10.8014 17.6638C11.1218 17.9827 11.4356 18.3051 11.774 18.603C13.4292 20.0604 15.4017 21.1113 17.5346 21.6723C17.5346 21.6723 18.3746 21.8013 18.3869 21.8021C18.6651 21.8171 18.9429 21.7969 19.2215 21.7827C19.6584 21.7602 20.085 21.642 20.4711 21.4363C20.7194 21.3042 20.8368 21.2385 21.0452 21.1071C21.0452 21.1071 21.1091 21.0639 21.2324 20.9721C21.4349 20.8212 21.56 20.715 21.7284 20.5401C21.8526 20.4111 21.9594 20.2587 22.0419 20.087C22.1592 19.8422 22.2773 19.3749 22.3242 18.9869C22.3601 18.6905 22.3493 18.5285 22.3454 18.4281C22.3389 18.2667 22.2056 18.1006 22.0595 18.0301L21.1872 17.6381C21.1872 17.6381 19.883 17.0705 19.0853 16.7066C19.0022 16.6686 18.9113 16.6511 18.8199 16.6455C18.6198 16.6332 18.3956 16.6854 18.2529 16.8357C18.2454 16.8327 18.1461 16.9185 17.0609 18.2332C17.001 18.3048 16.8608 18.4604 16.6182 18.4458C16.5816 18.4433 16.5452 18.438 16.5096 18.4287C16.4114 18.4027 16.3157 18.3686 16.2221 18.329C16.0365 18.2502 15.9714 18.2204 15.8447 18.1658C14.9787 17.7875 14.184 17.2813 13.4816 16.662C13.2932 16.4961 13.118 16.3174 12.9374 16.1424C12.3071 15.5314 11.7911 14.8816 11.4072 14.2407C11.3862 14.2057 11.3539 14.1552 11.3191 14.0986C11.2563 13.9965 11.1871 13.875 11.1654 13.7916C11.1096 13.5709 11.2575 13.3937 11.2575 13.3937C11.2575 13.3937 11.6226 12.9945 11.7923 12.7775C11.9555 12.5685 12.0963 12.3642 12.186 12.2186C12.3627 11.9345 12.4187 11.6409 12.3258 11.4144C11.905 10.3885 11.4708 9.36804 11.0233 8.35341C10.935 8.15318 10.6723 8.00769 10.4334 7.9801C10.3525 7.97076 10.2717 7.96137 10.1904 7.95603C9.98933 7.94622 9.78783 7.94838 9.58701 7.96249Z" fill="#ff0000"/>
</svg>
