<svg width="15" height="15" viewBox="0 0 15 15" fill="none" xmlns="http://www.w3.org/2000/svg">
<path d="M0 0.833333C0 0.3731 0.3731 0 0.833333 0H5.83333C6.29358 0 6.66667 0.3731 6.66667 0.833333V5.83333C6.66667 6.29358 6.29358 6.66667 5.83333 6.66667H0.833333C0.3731 6.66667 0 6.29358 0 5.83333V0.833333ZM0 9.16667C0 8.70642 0.3731 8.33333 0.833333 8.33333H5.83333C6.29358 8.33333 6.66667 8.70642 6.66667 9.16667V14.1667C6.66667 14.6269 6.29358 15 5.83333 15H0.833333C0.3731 15 0 14.6269 0 14.1667V9.16667ZM8.33333 0.833333C8.33333 0.3731 8.70642 0 9.16667 0H14.1667C14.6269 0 15 0.3731 15 0.833333V5.83333C15 6.29358 14.6269 6.66667 14.1667 6.66667H9.16667C8.70642 6.66667 8.33333 6.29358 8.33333 5.83333V0.833333ZM8.33333 9.16667C8.33333 8.70642 8.70642 8.33333 9.16667 8.33333H14.1667C14.6269 8.33333 15 8.70642 15 9.16667V14.1667C15 14.6269 14.6269 15 14.1667 15H9.16667C8.70642 15 8.33333 14.6269 8.33333 14.1667V9.16667Z" fill="white"/>
</svg>
